:version 1.10
:name ASF
:units
  mass 1
  length 1
  angle deg
:documentation
  ASF file generated by Kaydara
:root
  axis xyz
  order  tx ty tz rx ry rz
  position 0 0 0
  orientation 0 0 0
:bonedata
  begin
    id 1
    name RightUpLegDummy
    direction -0.65628 -0.754516 0.00165102
    length 4.76918
    axis 0 0 0 xyz
  end
  begin
    id 2
    name RightUpLeg
    direction -0.145584 -0.923362 0.355256
    length 17.9961
    axis -24.7611 -13.1006 1.78531 xyz
    dof rx ry rz
  end
  begin
    id 3
    name RightLeg
    direction 0.263379 0.172355 -0.949171
    length 13.3386
    axis 89.6202 -21.1929 12.3855 xyz
    dof rx ry rz
  end
  begin
    id 4
    name RightFoot
    direction 0.224283 -0.968777 -0.105675
    length 5.86697
    axis 56.995 -39.6905 17.3365 xyz
    dof rx ry rz
  end
  begin
    id 5
    name RightToes
    direction -0.0806345 -0.9037 0.420506
    length 4.75197
    axis 146.825 -39.7828 17.6019 xyz
    dof rx ry rz
  end
  begin
    id 6
    name SpineDummy
    direction -3.39852e-014 1 9.33296e-014
    length 8.13779
    axis 0 0 0 xyz
  end
  begin
    id 7
    name Spine
    direction -0.156609 0.733703 0.661176
    length 7.14978
    axis 41.2365 5.68757 17.0844 xyz
    dof rx ry rz
  end
  begin
    id 8
    name Spine1
    direction 0 0 0
    length 0
    axis 42.8809 47.8308 -3.36039 xyz
    dof rx ry rz
  end
  begin
    id 9
    name HEadDummy
    direction 0.546431 0.701947 0.456819
    length 3.55512
    axis 42.8809 47.8308 -3.36039 xyz
  end
  begin
    id 10
    name HEad
    direction 0.23444 0.828559 0.508457
    length 7.35827
    axis 51.1864 49.2662 27.4903 xyz
    dof rx ry rz
  end
  begin
    id 11
    name LeftShoulder1Dummy
    direction 0.431183 0.475873 -0.766568
    length 2.49352
    axis 42.8809 47.8308 -3.36039 xyz
  end
  begin
    id 12
    name LeftShoulder1
    direction 0.268187 -0.383402 -0.883786
    length 4.48604
    axis -119.517 0.106469 35.1736 xyz
    dof rx ry rz
  end
  begin
    id 13
    name LeftArm
    direction 0.380567 -0.703221 -0.600541
    length 10.1142
    axis -5.41825 36.2925 7.8293 xyz
    dof rx ry rz
  end
  begin
    id 14
    name LeftForeArm
    direction 0.541071 -0.732356 -0.413396
    length 9.39839
    axis 4.65387 33.7604 7.81644 xyz
    dof rx ry rz
  end
  begin
    id 15
    name LeftHand
    direction 0.847511 -0.389379 -0.360707
    length 3.66142
    axis 7.65593 21.1436 -24.6758 xyz
    dof rx ry rz
  end
  begin
    id 16
    name RightShoulderDummy
    direction -0.692546 0.541855 0.476208
    length 2.49352
    axis 42.8809 47.8308 -3.36039 xyz
  end
  begin
    id 17
    name RightShoulder
    direction -0.870808 -0.316653 0.376065
    length 4.48602
    axis 141.571 51.133 -100.254 xyz
    dof rx ry rz
  end
  begin
    id 18
    name RightArm
    direction 0.366897 -0.87275 0.322015
    length 10.1142
    axis 92.3258 71.2036 138.917 xyz
    dof rx ry rz
  end
  begin
    id 19
    name RightForeArm
    direction 0.702487 -0.694568 0.155197
    length 9.39835
    axis 153.863 41.5092 -176.604 xyz
    dof rx ry rz
  end
  begin
    id 20
    name RightHand
    direction 0.79502 -0.601276 0.0800636
    length 3.66142
    axis 154.247 4.59222 142.9 xyz
    dof rx ry rz
  end
  begin
    id 21
    name LeftUpLegDummy
    direction 0.65628 -0.754516 0.00165102
    length 4.76919
    axis 0 0 0 xyz
  end
  begin
    id 22
    name LeftUpLeg
    direction -0.1277 -0.689368 0.713067
    length 17.9961
    axis -48.3385 -17.8675 0.791927 xyz
    dof rx ry rz
  end
  begin
    id 23
    name LeftLeg
    direction 0.109849 -0.991246 -0.0732378
    length 13.3386
    axis -2.05791 -7.30784 1.72042 xyz
    dof rx ry rz
  end
  begin
    id 24
    name LeftFoot
    direction 0.0448355 -0.272614 0.961078
    length 5.86697
    axis -18.7733 -7.89606 10.2113 xyz
    dof rx ry rz
  end
  begin
    id 25
    name LeftToes
    direction -0.18506 0.293668 0.937823
    length 4.75197
    axis 71.2267 -7.89606 10.2113 xyz
    dof rx ry rz
  end
:hierarchy
  begin
    root RightUpLegDummy SpineDummy LeftUpLegDummy
    RightUpLegDummy RightUpLeg
    RightUpLeg RightLeg
    RightLeg RightFoot
    RightFoot RightToes
    SpineDummy Spine
    Spine Spine1
    Spine1 HEadDummy LeftShoulder1Dummy RightShoulderDummy
    HEadDummy HEad
    LeftShoulder1Dummy LeftShoulder1
    LeftShoulder1 LeftArm
    LeftArm LeftForeArm
    LeftForeArm LeftHand
    RightShoulderDummy RightShoulder
    RightShoulder RightArm
    RightArm RightForeArm
    RightForeArm RightHand
    LeftUpLegDummy LeftUpLeg
    LeftUpLeg LeftLeg
    LeftLeg LeftFoot
    LeftFoot LeftToes
  end

:SAMPLES-PER-SECOND 30
:FULLY-SPECIFIED
:DEGREES
638
root  -4.30421 31.2159 -22.8137 -111.869 22.4646 132.298
RightUpLeg  -3.34271 3.95712 -36.1521
RightLeg  -86.613 -15.8685 13.9661
RightFoot  16.2758 3.55952 -13.0817
RightToes  -1.27222e-014 -6.36111e-015 6.36111e-015
Spine  -5.05289 -7.60736 -8.72836
Spine1  14.1481 -3.30148 14.7674
HEad  21.9319 -59.7056 -22.3161
LeftShoulder1  6.36111e-015 -1.33558e-015 6.49777e-015
LeftArm  27.681 19.2952 -8.86977
LeftForeArm  -94.1963 -41.895 49.778
LeftHand  2.24543 5.29656 1.31712
RightShoulder  -4.77083e-015 -6.36111e-015 -3.18055e-015
RightArm  16.5955 -9.7258 -89.3777
RightForeArm  -32.1049 -13.6961 -8.05364
RightHand  26.1702 -12.4248 -75.8764
LeftUpLeg  -24.9214 43.1896 25.7282
LeftLeg  19.5687 -18.5743 -6.83459
LeftFoot  -6.00013 7.14529 -29.1234
LeftToes  1.27222e-014 1.09105e-011 6.96064e-012
639
root  -4.76551 32.1055 -22.4849 -104.874 12.4825 147.681
RightUpLeg  -4.8735 8.26025 -33.9808
RightLeg  -84.3679 -16.992 14.8918
RightFoot  15.1192 4.50965 -14.4244
RightToes  -1.27222e-014 -6.36111e-015 6.36111e-015
Spine  -4.90858 -4.06693 -5.4117
Spine1  12.6958 -1.53707 13.9433
HEad  14.7696 -55.8026 -19.9457
LeftShoulder1  6.36111e-015 -1.33558e-015 6.49777e-015
LeftArm  27.124 16.7261 -13.1137
LeftForeArm  -86.7042 -43.3332 46.8644
LeftHand  2.74078 6.34101 1.82672
RightShoulder  -4.77083e-015 -6.36111e-015 -3.18055e-015
RightArm  4.14589 -10.1507 -83.4474
RightForeArm  -29.8834 -15.3108 -7.15472
RightHand  25.0648 -12.5805 -73.2147
LeftUpLeg  -26.766 43.6197 22.76
LeftLeg  23.6268 -23.611 -10.6056
LeftFoot  -7.21653 7.38058 -31.4358
LeftToes  1.27222e-014 1.09105e-011 6.96064e-012
640
root  -5.33307 32.47 -21.6756 -100.689 0.501709 161.689
RightUpLeg  -9.52744 10.1034 -32.3936
RightLeg  -82.4194 -17.8848 15.2713
RightFoot  14.2619 5.19312 -15.4306
RightToes  -1.27222e-014 -6.36111e-015 6.36111e-015
Spine  -7.10719 -0.907937 -3.26931
Spine1  11.7722 0.30597 14.4339
HEad  8.38121 -49.586 -17.0716
LeftShoulder1  6.36111e-015 -1.33558e-015 6.49777e-015
LeftArm  26.3066 13.9398 -15.5558
LeftForeArm  -79.6587 -44.5894 44.2355
LeftHand  2.68503 6.20548 1.82209
RightShoulder  -4.77083e-015 -6.36111e-015 -3.18055e-015
RightArm  -9.4976 -10.3305 -74.2774
RightForeArm  -25.9557 -18.3422 -5.66645
RightHand  24.1927 -12.778 -70.8939
LeftUpLeg  -29.2121 42.2757 20.2039
LeftLeg  26.0542 -29.4489 -14.6918
LeftFoot  -6.60051 7.54369 -31.3703
LeftToes  1.27222e-014 1.09105e-011 6.96064e-012
641
root  -5.92142 32.5394 -20.529 -102.318 -11.0593 173.475
RightUpLeg  -13.4024 9.24419 -33.5478
RightLeg  -83.3399 -17.5875 15.419
RightFoot  14.1526 3.74906 -12.9121
RightToes  -1.27222e-014 -6.36111e-015 6.36111e-015
Spine  -7.64922 0.641303 -0.86682
Spine1  10.6453 0.942239 14.8819
HEad  3.13969 -41.4306 -13.6066
LeftShoulder1  6.36111e-015 -1.33558e-015 6.49777e-015
LeftArm  25.8374 10.7821 -14.8265
LeftForeArm  -71.7978 -45.1884 38.9123
LeftHand  2.29007 5.43607 1.23603
RightShoulder  -4.77083e-015 -6.36111e-015 -3.18055e-015
RightArm  -20.5534 -7.91915 -63.5375
RightForeArm  -22.0118 -25.6191 -3.75168
RightHand  24.3782 -14.1318 -68.5656
LeftUpLeg  -26.6578 39.8422 17.4383
LeftLeg  18.0042 -24.3296 -8.81482
LeftFoot  -8.3976 6.59312 -29.5209
LeftToes  1.27222e-014 1.09105e-011 6.96064e-012
642
root  -6.42908 32.1112 -18.9916 -110.426 -22.0134 -176.122
RightUpLeg  -14.3111 8.02625 -36.0218
RightLeg  -85.2773 -16.3674 13.9718
RightFoot  13.5909 2.60123 -10.7846
RightToes  -1.27222e-014 -6.36111e-015 6.36111e-015
Spine  -4.15917 0.464384 2.12328
Spine1  6.68418 -0.777722 15.8937
HEad  -1.28427 -32.8648 -10.5344
LeftShoulder1  6.36111e-015 -1.33558e-015 6.49777e-015
LeftArm  24.6376 7.94086 -11.7872
LeftForeArm  -62.5212 -44.9268 32.0125
LeftHand  2.02384 5.03111 0.469925
RightShoulder  -4.77083e-015 -6.36111e-015 -3.18055e-015
RightArm  -16.1439 10.8964 -51.7124
RightForeArm  -29.3761 -49.4242 -4.599
RightHand  24.4733 -16.0056 -65.1928
LeftUpLeg  -17.4797 35.3857 20.4158
LeftLeg  7.21352 -7.54572 -1.22305
LeftFoot  -21.7381 2.93306 -28.4701
LeftToes  1.27222e-014 1.09105e-011 6.96064e-012
643
root  -6.26168 31.8282 -17.5906 -119.184 -31.7247 -169.677
RightUpLeg  -14.8841 9.68232 -39.7876
RightLeg  -85.7569 -15.421 11.4052
RightFoot  13.0431 3.62819 -12.4344
RightToes  -1.27222e-014 -6.36111e-015 6.36111e-015
Spine  1.04431 -1.9768 2.25048
Spine1  0.72583 -3.92569 19.4017
HEad  -7.411 -27.3606 -7.08233
LeftShoulder1  6.36111e-015 -1.33558e-015 6.49777e-015
LeftArm  19.2736 2.51317 -8.69843
LeftForeArm  -49.986 -42.6955 22.2934
LeftHand  1.94191 4.8444 0.406091
RightShoulder  -4.77083e-015 -6.36111e-015 -3.18055e-015
RightArm  -14.7927 20.9185 -44.193
RightForeArm  -36.0081 -64.4149 -2.99285
RightHand  23.4309 -17.1915 -60.7282
LeftUpLeg  -12.9428 27.5985 26.6434
LeftLeg  5.71835 3.98313 1.4364
LeftFoot  -31.9545 0.361522 -27.6291
LeftToes  1.27222e-014 1.09105e-011 6.96064e-012
644
root  -5.51653 32.0606 -16.7545 -122.37 -40.3556 -169.707
RightUpLeg  -17.3785 11.8062 -45.8562
RightLeg  -84.27 -15.0138 8.64366
RightFoot  12.3539 4.92465 -14.5855
RightToes  -1.27222e-014 -6.36111e-015 6.36111e-015
Spine  5.91273 -5.12233 -0.673186
Spine1  -4.71121 -6.78679 22.8862
HEad  -15.8669 -27.7375 -1.4049
LeftShoulder1  6.36111e-015 -1.33558e-015 6.49777e-015
LeftArm  8.67052 -11.4565 -6.20316
LeftForeArm  -33.8931 -36.103 10.5413
LeftHand  1.78876 4.46457 0.375123
RightShoulder  -4.77083e-015 -6.36111e-015 -3.18055e-015
RightArm  -18.7172 21.5181 -44.5627
RightForeArm  -36.9479 -72.8594 -4.87852
RightHand  21.8835 -18.0319 -55.7155
LeftUpLeg  -17.1258 22.3918 30.7276
LeftLeg  11.6233 -0.286806 1.13017
LeftFoot  -29.5456 0.931841 -27.1855
LeftToes  1.27222e-014 1.09105e-011 6.96064e-012
645
root  -4.73401 32.4398 -16.3358 -121.867 -48.8509 -172.354
RightUpLeg  -21.6001 9.23173 -50.6618
RightLeg  -82.1474 -14.5704 5.65318
RightFoot  11.7951 4.69514 -14.0526
RightToes  -1.27222e-014 -6.36111e-015 6.36111e-015
Spine  10.1357 -6.85783 -1.56367
Spine1  -8.70171 -8.88749 22.3437
HEad  -23.5325 -31.9755 6.09207
LeftShoulder1  6.36111e-015 -1.33558e-015 6.49777e-015
LeftArm  -2.85138 -34.5088 -1.96476
LeftForeArm  -19.0594 -24.7801 1.87257
LeftHand  1.47633 3.98877 -0.634736
RightShoulder  -4.77083e-015 -6.36111e-015 -3.18055e-015
RightArm  -20.9047 17.5516 -50.473
RightForeArm  -34.0837 -77.6972 -9.31206
RightHand  20.4003 -19.3024 -50.1064
LeftUpLeg  -22.8314 22.4083 32.4489
LeftLeg  14.5923 -11.441 -2.92371
LeftFoot  -21.9101 2.55751 -25.1997
LeftToes  1.27222e-014 1.09105e-011 6.96064e-012
